<svg xmlns="http://www.w3.org/2000/svg" viewBox="0 0 24 24" fill="currentColor">
  <path d="M20.352,3.643H3.648C2.437,3.643,1.465,4.616,1.465,5.826v16.309c0,1.211,0.972,2.183,2.183,2.183h16.703c1.211,0,2.183-0.972,2.183-2.183V5.826C22.535,4.616,21.562,3.643,20.352,3.643z M8.585,19.454H5.88V10.71h2.705V19.454z M7.233,9.394C6.276,9.394,5.5,8.618,5.5,7.66c0-0.958,0.776-1.734,1.733-1.734S9.967,6.702,9.967,7.66C9.967,8.618,9.19,9.394,8.233,9.394H7.233z M19.454,19.454h-2.704v-4.78c0-1.143-0.022-2.611-1.587-2.611c-1.588,0-1.833,1.241-1.833,2.524v4.866H10.53V10.71h2.561v1.346h0.036c0.358-0.678,1.232-1.393,2.529-1.393c2.706,0,3.207,1.782,3.207,4.098V19.454z"/>
</svg>
